<?xml version="1.0" standalone="no"?>
<!DOCTYPE svg PUBLIC "-//W3C//DTD SVG 20010904//EN"
 "http://www.w3.org/TR/2001/REC-SVG-20010904/DTD/svg10.dtd">
<svg version="1.0" xmlns="http://www.w3.org/2000/svg"
 width="1361.000000pt" height="1361.000000pt" viewBox="0 0 1361.000000 1361.000000"
 preserveAspectRatio="xMidYMid meet">
<metadata>
Created by potrace 1.14, written by Peter Selinger 2001-2017
</metadata>
<g transform="translate(0.000000,1361.000000) scale(0.100000,-0.100000)"
fill="#000000" stroke="none">
<path d="M6527 13244 c-1 -1 -56 -5 -122 -8 -183 -9 -325 -22 -333 -31 -3 -2
-12 1 -20 8 -9 6 -13 7 -9 1 4 -7 -7 -11 -31 -12 -20 -1 -50 -6 -67 -10 -16
-5 -45 -8 -62 -7 -18 0 -33 -2 -33 -5 0 -4 -10 -6 -22 -5 -13 1 -29 -3 -37 -9
-12 -9 -13 -8 -6 3 6 11 5 12 -6 5 -8 -4 -23 -10 -34 -11 -11 -2 -47 -7 -80
-13 -33 -5 -77 -12 -99 -16 -21 -3 -48 -8 -60 -10 -11 -2 -32 -6 -46 -9 -28
-5 -60 -12 -90 -20 -11 -3 -29 -7 -40 -9 -11 -3 -24 -7 -29 -11 -5 -3 -22 -7
-38 -9 -58 -8 -228 -50 -234 -58 -3 -5 -10 -8 -15 -6 -5 1 -43 -8 -84 -21 -81
-25 -108 -32 -127 -33 -7 -1 -13 -6 -13 -11 0 -6 -2 -8 -5 -5 -3 3 -42 -8 -88
-25 -45 -16 -92 -30 -104 -31 -13 0 -23 -4 -23 -8 0 -3 -30 -16 -67 -29 -38
-12 -88 -31 -113 -42 -25 -11 -47 -21 -50 -21 -14 -3 -134 -53 -200 -83 -41
-19 -79 -36 -85 -38 -29 -8 -75 -30 -75 -37 0 -4 -7 -5 -15 -2 -8 4 -15 1 -15
-5 0 -6 -7 -11 -15 -11 -8 0 -15 -5 -15 -11 0 -5 -4 -7 -10 -4 -5 3 -10 1 -10
-4 0 -6 -3 -10 -7 -9 -9 2 -165 -72 -173 -82 -3 -3 -32 -19 -65 -35 -33 -15
-62 -31 -65 -34 -8 -9 -82 -51 -112 -64 -16 -6 -28 -15 -28 -19 0 -4 -4 -8
-10 -8 -12 0 -173 -101 -182 -115 -4 -5 -8 -6 -8 -2 0 5 -7 2 -15 -5 -28 -26
-40 -34 -50 -36 -5 -1 -18 -8 -27 -16 -9 -9 -34 -24 -55 -35 -21 -11 -34 -20
-29 -21 5 0 -23 -21 -62 -46 -40 -25 -72 -51 -72 -57 0 -5 -3 -8 -6 -4 -3 3
-18 -5 -32 -18 -15 -13 -29 -23 -32 -22 -6 2 -27 -15 -58 -45 -9 -9 -40 -33
-68 -55 -53 -39 -119 -93 -158 -128 -13 -11 -44 -38 -71 -60 -27 -22 -59 -51
-72 -65 -13 -14 -23 -22 -23 -19 0 3 -38 -32 -85 -77 -47 -45 -85 -79 -85 -75
0 3 -9 -7 -20 -24 -11 -16 -20 -27 -20 -23 0 3 -18 -12 -40 -35 -120 -125
-169 -176 -197 -209 -17 -20 -34 -34 -37 -31 -3 4 -6 0 -6 -8 0 -8 -15 -28
-33 -45 -17 -16 -66 -71 -107 -122 -41 -51 -78 -92 -82 -92 -4 0 -8 -7 -8 -15
0 -8 -4 -15 -10 -15 -5 0 -10 -4 -10 -10 0 -5 -16 -26 -35 -45 -19 -20 -44
-54 -56 -75 -13 -22 -26 -40 -30 -40 -4 0 -18 -17 -30 -37 -23 -37 -42 -63
-66 -88 -7 -7 -9 -15 -6 -19 4 -3 2 -6 -3 -6 -6 0 -20 -17 -32 -39 -12 -21
-29 -44 -37 -51 -8 -7 -13 -16 -10 -20 3 -4 -2 -10 -10 -14 -8 -3 -15 -12 -15
-21 0 -8 -3 -15 -8 -15 -4 0 -16 -17 -27 -37 -11 -20 -25 -41 -30 -47 -6 -6
-26 -38 -45 -71 -18 -33 -39 -67 -46 -75 -12 -15 -41 -67 -113 -200 -19 -36
-38 -68 -43 -71 -5 -3 -10 -13 -12 -21 -1 -8 -9 -26 -17 -39 -8 -13 -28 -51
-43 -84 -15 -33 -32 -63 -38 -66 -5 -3 -10 -16 -11 -27 -1 -12 -4 -22 -7 -22
-3 0 -16 -28 -30 -62 -13 -35 -30 -69 -37 -76 -7 -7 -13 -19 -13 -26 0 -7 -6
-26 -14 -42 -19 -38 -38 -86 -42 -103 -1 -8 -8 -17 -14 -21 -7 -4 -11 -10 -10
-14 1 -4 -10 -37 -23 -74 -14 -37 -28 -77 -32 -89 -3 -13 -10 -23 -14 -23 -4
0 -7 -9 -8 -20 -1 -10 -8 -34 -17 -52 -8 -18 -23 -62 -32 -98 -10 -36 -20 -67
-23 -70 -7 -6 -14 -30 -15 -52 0 -9 -3 -15 -7 -12 -3 2 -11 -18 -17 -44 -22
-100 -46 -182 -52 -182 -4 0 -6 -11 -5 -25 2 -14 0 -25 -4 -25 -4 0 -8 -6 -9
-12 0 -7 -3 -22 -6 -33 -3 -11 -15 -60 -26 -110 -12 -49 -30 -128 -42 -175
-11 -47 -22 -98 -23 -115 -2 -16 -4 -30 -5 -30 -1 0 -3 -9 -5 -20 -1 -11 -5
-33 -8 -50 -6 -32 -24 -158 -31 -215 -3 -19 -7 -51 -11 -70 -3 -19 -8 -49 -9
-67 -2 -17 -7 -37 -11 -44 -6 -8 -4 -10 5 -4 10 6 11 4 4 -6 -10 -17 -10 -15
-18 -109 -18 -214 -21 -301 -21 -590 0 -370 16 -673 35 -694 5 -5 5 -19 0 -31
-5 -13 -6 -26 -2 -29 6 -7 8 -15 17 -91 3 -27 8 -58 11 -68 3 -9 7 -36 9 -60
3 -40 11 -95 21 -144 6 -33 13 -74 19 -108 3 -16 8 -41 11 -55 3 -14 6 -34 7
-45 1 -11 4 -22 7 -25 5 -4 26 -94 34 -145 2 -11 9 -40 16 -65 6 -25 13 -54
15 -65 2 -11 4 -22 5 -25 1 -3 2 -8 1 -12 0 -5 3 -8 7 -8 5 0 9 -6 10 -12 1
-19 12 -70 19 -93 4 -11 8 -26 9 -33 1 -6 15 -51 30 -100 16 -48 27 -90 26
-94 -1 -5 2 -8 8 -8 6 0 9 -3 8 -7 -3 -12 54 -186 66 -202 6 -8 10 -16 8 -18
-1 -2 5 -19 13 -39 8 -20 15 -42 15 -48 0 -6 8 -23 17 -36 10 -14 17 -26 16
-27 -7 -8 11 -64 23 -74 8 -6 14 -17 14 -24 0 -7 9 -33 20 -59 12 -25 21 -48
21 -51 0 -2 20 -45 45 -94 24 -49 44 -97 44 -105 0 -9 5 -16 11 -16 5 0 8 -4
5 -9 -4 -5 -2 -11 2 -13 5 -1 32 -48 60 -103 85 -169 107 -210 115 -213 4 -2
7 -10 7 -18 0 -8 3 -14 8 -14 4 -1 21 -30 37 -65 17 -36 36 -65 44 -65 8 0 12
-3 8 -6 -3 -3 5 -24 19 -45 13 -21 24 -42 24 -47 0 -4 8 -17 18 -28 10 -10 33
-44 51 -74 19 -30 37 -57 41 -60 3 -3 22 -31 41 -62 18 -32 37 -58 41 -58 5 0
8 -7 8 -16 0 -8 5 -12 10 -9 5 3 10 0 10 -8 0 -7 9 -23 20 -35 11 -12 20 -26
20 -32 0 -5 5 -10 10 -10 6 0 10 -6 10 -14 0 -8 3 -16 8 -18 13 -5 72 -85 72
-97 0 -6 4 -11 9 -11 5 0 24 -20 42 -45 19 -25 49 -61 68 -80 18 -19 30 -35
26 -35 -3 0 0 -6 7 -14 8 -7 34 -37 59 -66 24 -29 60 -69 79 -90 19 -21 78
-83 130 -139 93 -100 211 -221 215 -221 1 0 36 -33 78 -72 42 -40 99 -93 128
-118 28 -25 64 -56 79 -70 15 -14 45 -38 66 -55 21 -16 48 -40 61 -53 13 -13
23 -20 23 -17 0 4 7 -1 16 -9 9 -9 32 -29 52 -44 21 -15 39 -29 42 -33 3 -3
32 -25 65 -50 33 -24 69 -52 79 -61 11 -10 23 -18 28 -18 4 0 17 -8 27 -17 35
-32 51 -44 51 -38 0 3 12 -6 27 -20 15 -14 31 -25 35 -25 7 0 96 -58 108 -70
3 -3 14 -10 25 -17 11 -6 58 -36 105 -65 46 -29 92 -56 102 -60 10 -4 18 -12
18 -18 0 -5 3 -9 8 -8 11 4 72 -26 72 -34 0 -5 7 -8 15 -8 8 0 15 -5 15 -11 0
-5 4 -7 10 -4 5 3 10 3 10 -2 0 -4 36 -26 80 -47 44 -22 80 -43 80 -48 0 -4 6
-8 14 -8 13 0 119 -48 156 -71 16 -10 61 -31 70 -34 3 0 16 -7 30 -15 14 -8
27 -15 30 -15 38 -9 60 -19 60 -27 0 -5 5 -6 10 -3 6 3 10 1 10 -5 0 -7 6 -10
13 -7 6 2 19 -1 27 -8 8 -7 58 -29 110 -50 138 -54 303 -116 320 -120 8 -2 36
-13 61 -24 25 -11 57 -23 70 -25 13 -3 24 -5 24 -6 0 -1 7 -3 15 -5 8 -1 44
-13 80 -25 36 -12 70 -23 75 -25 6 -1 17 -5 25 -8 35 -15 342 -92 400 -101 19
-3 46 -8 60 -11 34 -8 65 -14 130 -25 30 -5 69 -12 85 -15 75 -14 91 -17 114
-16 12 1 28 -2 34 -6 13 -8 52 -13 119 -16 27 -1 48 -5 48 -9 0 -4 8 -6 18 -6
15 1 114 -9 152 -15 8 -1 21 -6 28 -10 6 -5 12 -4 12 2 0 6 6 8 13 6 6 -2 36
-6 66 -9 30 -3 56 -8 59 -11 3 -3 12 0 19 7 9 7 17 8 21 2 17 -24 882 -24 921
0 6 4 11 3 11 -3 0 -7 8 -7 23 -2 12 4 27 6 34 4 7 -2 21 1 32 7 16 8 21 8 21
-2 0 -9 3 -9 10 2 7 11 10 11 10 2 0 -7 5 -10 12 -6 13 8 50 14 96 15 17 1 32
4 32 8 0 3 20 6 45 5 25 0 45 3 45 7 0 4 16 5 35 3 19 -1 35 0 35 4 0 4 12 7
28 8 15 0 50 4 77 8 28 4 61 9 75 11 14 1 35 5 46 9 12 4 39 9 60 11 22 3 48
7 59 9 11 3 28 5 38 5 12 1 16 6 11 14 -5 9 -4 9 5 1 12 -11 89 2 101 17 3 3
15 5 28 4 12 -1 22 1 22 4 0 4 12 8 27 9 30 2 246 56 285 71 14 5 29 7 32 4 3
-4 6 -2 6 3 0 5 8 10 18 11 10 1 48 11 85 23 37 12 73 23 80 24 6 1 18 5 25 9
6 5 12 6 12 2 0 -3 10 0 23 7 12 6 29 13 37 14 8 2 23 7 35 13 29 13 239 86
245 84 3 -1 12 4 20 11 8 8 33 19 55 26 40 12 97 36 165 68 19 9 37 17 40 17
5 1 102 44 162 73 21 9 38 21 38 25 0 5 5 5 10 2 6 -3 10 -1 10 6 0 7 3 10 6
7 3 -3 49 17 102 44 53 28 118 62 144 75 27 14 50 29 54 34 3 5 10 7 15 4 5
-4 12 1 15 9 3 9 10 13 15 10 5 -3 9 -1 9 4 0 8 28 20 47 20 3 0 9 4 12 9 3 5
25 20 49 33 23 13 42 28 42 32 0 5 4 7 9 3 5 -3 12 -1 16 4 3 5 31 24 63 42
31 18 66 41 76 51 10 9 23 15 28 12 4 -3 8 -1 8 4 0 5 16 17 35 28 19 10 35
22 35 26 0 5 6 8 14 8 7 0 19 6 25 14 6 7 44 35 84 62 39 26 76 54 80 61 4 7
15 13 22 13 8 0 15 3 15 8 0 4 16 16 35 26 19 10 32 23 29 27 -3 5 2 9 11 9 8
0 18 7 21 15 4 8 12 15 20 15 7 0 17 6 21 13 4 6 26 25 48 41 22 16 47 37 56
45 9 9 31 27 49 41 18 14 45 37 60 53 16 15 31 27 35 27 3 0 22 16 41 36 19
20 34 35 34 32 0 -4 144 131 245 231 64 63 226 234 280 296 28 32 63 72 78 89
16 17 42 50 58 74 17 23 33 42 37 42 4 0 18 17 32 37 14 20 36 48 49 63 13 14
37 45 54 70 17 25 37 52 44 60 22 24 101 136 180 255 40 61 77 115 82 122 6 6
19 27 30 46 10 19 25 45 33 58 7 13 18 31 24 39 7 8 29 47 49 85 21 39 41 72
45 75 3 3 17 28 30 55 13 28 28 53 32 56 5 3 10 15 11 27 0 11 5 18 9 16 7 -5
10 3 7 22 0 4 4 10 9 13 11 7 52 95 52 111 0 6 3 9 8 6 4 -2 16 17 26 42 11
26 30 72 44 102 14 30 24 58 24 63 -1 4 2 7 8 7 5 0 10 6 10 13 1 6 9 30 20
52 11 22 19 43 20 47 0 4 12 33 27 65 14 32 38 93 53 135 15 43 31 74 35 70 5
-4 5 -1 1 6 -4 7 -3 18 2 25 12 15 87 248 86 265 -1 6 2 12 6 12 4 0 10 10 13
22 3 13 18 66 32 118 15 52 27 103 28 113 1 9 6 17 11 17 5 0 6 3 3 6 -3 4 -2
15 3 25 6 10 12 30 14 46 2 15 6 35 9 43 3 8 13 49 22 90 8 41 17 84 20 95 13
55 18 82 21 100 1 11 3 20 4 20 2 0 4 9 6 20 1 11 10 62 18 113 9 51 18 108
20 125 10 72 17 124 22 157 3 19 7 49 9 65 2 17 6 50 10 75 4 25 8 63 10 85 1
22 6 90 11 150 15 204 9 921 -8 1007 -2 7 -7 16 -13 20 -6 5 -6 8 1 8 7 0 10
12 7 28 -4 32 -15 132 -16 150 0 6 -3 12 -6 12 -3 0 -7 15 -7 33 -4 85 -10
137 -16 137 -3 0 -5 8 -4 17 2 10 -1 33 -5 53 -5 19 -11 59 -14 88 -3 29 -10
65 -16 78 -5 14 -7 29 -4 34 3 5 1 11 -5 15 -6 4 -8 11 -5 16 4 5 2 24 -4 42
-9 29 -46 182 -55 232 -8 41 -53 205 -83 305 -9 30 -18 62 -19 71 -2 9 -8 27
-13 40 -5 13 -9 26 -9 29 -1 3 -12 35 -26 73 -14 37 -24 67 -21 67 3 0 -1 13
-10 29 -8 17 -16 38 -18 48 -2 10 -9 29 -15 43 -32 73 -52 124 -52 134 0 6 -9
29 -21 50 -11 22 -22 46 -24 55 -3 16 -31 80 -85 196 -50 107 -73 160 -71 164
2 2 -1 7 -6 10 -5 3 -23 33 -40 66 -48 96 -117 226 -152 283 -17 29 -31 57
-31 62 0 6 -5 10 -12 10 -6 0 -9 3 -5 6 3 3 2 11 -4 18 -17 21 -59 86 -83 131
-13 25 -26 42 -30 38 -3 -3 -6 -1 -6 6 0 14 -160 254 -172 259 -5 2 -8 10 -8
18 0 8 -4 14 -8 14 -4 0 -16 13 -25 30 -10 16 -23 35 -30 42 -7 7 -24 29 -37
48 -24 35 -45 61 -65 84 -6 6 -21 25 -33 41 -37 50 -65 83 -114 137 -27 29
-48 54 -48 58 0 3 -19 26 -42 51 -125 133 -168 183 -168 190 0 5 -6 9 -14 9
-7 0 -24 14 -37 31 -13 18 -44 51 -69 76 -167 162 -220 210 -225 205 -3 -3 -5
3 -5 13 0 10 -3 16 -6 12 -3 -3 -16 4 -28 17 -11 12 -47 43 -79 69 -33 26 -55
47 -50 47 4 0 -5 8 -22 19 -16 10 -43 30 -58 45 -15 14 -31 26 -34 26 -3 0
-19 13 -34 30 -16 16 -31 29 -34 27 -2 -1 -21 12 -42 30 -21 18 -58 47 -83 64
-24 18 -49 36 -55 41 -42 34 -106 78 -114 78 -6 0 -11 5 -11 11 0 5 -4 8 -9 4
-5 -3 -12 4 -16 15 -3 11 -9 19 -13 17 -6 -2 -74 37 -97 56 -27 21 -166 107
-175 107 -5 0 -10 4 -10 10 0 5 -11 12 -25 16 -14 3 -25 9 -25 13 0 4 -27 20
-60 36 -33 17 -60 33 -60 38 0 4 -7 7 -15 7 -8 0 -15 3 -15 8 0 7 -48 32 -63
31 -4 0 -19 9 -34 21 -14 11 -31 20 -39 20 -7 0 -14 4 -16 8 -3 9 -155 85
-175 88 -7 1 -19 9 -27 17 -8 7 -29 20 -48 26 -18 7 -56 24 -85 37 -28 13 -57
24 -62 24 -6 0 -11 5 -11 10 0 6 -9 10 -20 10 -11 0 -20 5 -20 12 0 6 -3 9 -6
5 -5 -5 -105 33 -209 78 -51 23 -199 76 -223 81 -13 3 -35 12 -48 21 -14 9
-27 13 -31 10 -3 -4 -18 0 -34 9 -16 8 -32 15 -36 15 -5 1 -18 5 -31 10 -13 5
-32 9 -42 9 -10 0 -22 5 -25 10 -4 6 -11 8 -16 4 -5 -3 -16 0 -24 6 -8 7 -15
9 -15 5 0 -4 -6 -2 -14 4 -8 6 -18 11 -22 9 -5 -1 -36 6 -69 16 -33 10 -64 20
-70 21 -5 1 -14 4 -20 5 -23 7 -81 21 -100 25 -18 4 -135 32 -147 36 -9 2 -47
10 -68 14 -14 2 -25 5 -25 6 0 1 -9 3 -20 5 -11 1 -29 5 -40 7 -11 3 -40 8
-65 13 -25 4 -47 8 -50 9 -24 5 -129 19 -142 18 -10 0 -18 2 -18 6 0 3 -19 7
-43 9 -42 2 -102 10 -102 12 0 1 -25 4 -55 6 -30 3 -59 9 -65 14 -6 5 -17 5
-25 0 -8 -5 -19 -6 -25 -2 -5 3 -19 7 -30 8 -265 23 -327 26 -618 28 -153 1
-279 1 -280 0z"/>
</g>
</svg>
